#!OML:ASF F:\VICON\USERDATA\INSTALL\SteveWalk\SteveWalk.ASF
:FULLY-SPECIFIED
:DEGREES
170
root -0.404318 15.8344 -9.31683 18.8694 -4.7963 -0.319558
lowerback -15.6028 1.96506 -1.03026
upperback -5.24482 2.72859 0.292165
thorax 3.10943 1.35908 1.37524
lowerneck -6.16538 0.0873951 0.21208
upperneck 8.13198 0.252738 -1.71796
head 3.74005 0.056252 -0.592214
rclavicle -3.762e-014 -1.05356e-014
rhumerus -7.00191 10.6543 -82.5997
rradius 51.7299
rwrist -14.6359
rhand -18.341 -31.1357
rfingers 7.12502
rthumb 7.94121 -60.9665
lclavicle -3.762e-014 -1.05356e-014
lhumerus -83.693 33.1627 19.0033
lradius 9.61831
lwrist -55.9656
lhand -14.4088 -16.6304
lfingers 7.12502
lthumb 11.7349 13.0209
rfemur 1.34183 -3.75642 19.4843
rtibia 22.5663
rfoot -21.4435 13.9044
rtoes -20.9093
lfemur -50.5562 4.36324 -21.9214
ltibia 16.2655
lfoot -5.81292 -0.433756
ltoes -14.2231
171
root -0.393525 15.814 -9.04872 18.8053 -4.24933 -0.168348
lowerback -15.6911 1.79925 -1.28509
upperback -5.33617 2.55405 0.183696
thorax 3.05888 1.27433 1.37545
lowerneck -6.05486 -0.021135 0.191973
upperneck 8.20105 0.0828807 -1.42289
head 3.73956 -0.0152926 -0.499711
rclavicle 1.09456e-014 6.85807e-015
rhumerus -7.85445 10.2335 -82.5855
rradius 52.5911
rwrist -14.8573
rhand -18.428 -31.0805
rfingers 7.12502
rthumb 7.85721 -60.9145
lclavicle 1.09456e-014 6.85807e-015
lhumerus -84.0344 32.9936 18.1613
lradius 9.40602
lwrist -56.5985
lhand -14.4275 -16.4541
lfingers 7.12502
lthumb 11.7168 13.1983
rfemur 1.82072 -3.49712 19.3847
rtibia 23.2591
rfoot -18.8327 15.0786
rtoes -18.2579
lfemur -51.1656 4.31758 -22.6444
ltibia 18.7362
lfoot -3.5113 -0.667866
ltoes -25.1006
172
root -0.387026 15.8388 -8.7814 18.8774 -3.95845 0.340028
lowerback -15.795 1.61472 -1.98498
upperback -5.47744 2.42741 -0.0570392
thorax 2.94944 1.21619 1.49557
lowerneck -6.17748 -0.121287 0.222215
upperneck 8.31471 -0.0832325 -1.09454
head 3.80164 -0.0826966 -0.405807
rclavicle -7.56314e-016 -1.68967e-015
rhumerus -8.68472 9.742 -82.7187
rradius 53.2826
rwrist -15.0955
rhand -18.1917 -30.8718
rfingers 7.12502
rthumb 8.08531 -60.6971
lclavicle -7.56314e-016 -1.68967e-015
lhumerus -84.4194 32.8048 17.2411
lradius 9.37391
lwrist -57.2214
lhand -14.4645 -16.2784
lfingers 7.12502
lthumb 11.6812 13.3759
rfemur 1.77134 -3.12118 18.8743
rtibia 24.4006
rfoot -15.8883 16.3781
rtoes -13.228
lfemur -51.7988 3.59038 -22.7483
ltibia 21.0656
lfoot -1.52088 -1.27332
ltoes -19.4561
173
root -0.377928 15.8393 -8.51414 19.0399 -3.50489 0.908567
lowerback -15.9866 1.39113 -2.6817
upperback -5.61677 2.2536 -0.333026
thorax 2.89339 1.1346 1.57155
lowerneck -6.59296 -0.264207 0.110351
upperneck 8.67603 -0.305966 -0.619372
head 4.01085 -0.176245 -0.242737
rclavicle 8.00031e-015 3.60297e-015
rhumerus -9.7893 9.19699 -82.8611
rradius 54.0927
rwrist -15.2406
rhand -18.2178 -30.2136
rfingers 7.12502
rthumb 8.0601 -60.0399
lclavicle 8.00031e-015 3.60297e-015
lhumerus -84.7232 32.6249 16.379
lradius 9.44337
lwrist -57.83
lhand -14.5921 -16.0601
lfingers 7.12502
lthumb 11.5581 13.6011
rfemur 1.49075 -2.90187 18.3831
rtibia 26.1171
rfoot -14.0893 16.1513
rtoes -14.7795
lfemur -52.5146 2.80198 -22.9963
ltibia 23.2926
lfoot -0.4737 -1.9333
ltoes -15.0599
174
root -0.368653 15.828 -8.25012 19.2728 -2.87632 1.39245
lowerback -16.2877 1.15419 -3.27839
upperback -5.71135 2.05323 -0.572359
thorax 2.94793 1.03776 1.62829
lowerneck -6.87967 -0.428201 -0.122356
upperneck 8.88146 -0.554693 -0.0683969
head 4.14288 -0.281124 -0.0329147
rclavicle 3.10257e-014 -4.32357e-015
rhumerus -11.0638 8.50384 -82.9509
rradius 54.992
rwrist -15.2442
rhand -18.4277 -29.4914
rfingers 7.12502
rthumb 7.85754 -59.3253
lclavicle 3.10257e-014 -4.32357e-015
lhumerus -84.848 32.6363 15.6596
lradius 9.51193
lwrist -58.4556
lhand -14.5768 -15.982
lfingers 7.12502
lthumb 11.5729 13.6784
rfemur 0.910312 -2.86502 18.106
rtibia 28.1216
rfoot -12.1815 15.6044
rtoes -18.6872
lfemur -53.2986 2.03451 -23.2913
ltibia 25.7167
lfoot -0.00175642 -2.45084
ltoes -14.9538
175
root -0.3663 15.8088 -7.99291 19.4994 -2.41296 1.88714
lowerback -16.5239 0.983767 -3.97023
upperback -5.80151 1.95853 -0.856162
thorax 2.96611 0.994493 1.70772
lowerneck -7.07606 -0.648304 -0.277571
upperneck 8.88464 -0.894152 0.542275
head 4.18825 -0.424253 0.178832
rclavicle -1.01481e-014 -1.00386e-014
rhumerus -12.3292 7.58445 -83.102
rradius 55.7468
rwrist -15.3464
rhand -18.4832 -29.1997
rfingers 7.12502
rthumb 7.80396 -59.0357
lclavicle -1.01481e-014 -1.00386e-014
lhumerus -84.7202 32.7623 15.0206
lradius 9.43986
lwrist -59.1228
lhand -14.5284 -15.6888
lfingers 7.12502
lthumb 11.6196 13.9691
rfemur 0.133148 -2.66992 17.804
rtibia 30.4942
rfoot -9.24124 15.3145
rtoes -18.6286
lfemur -54.0065 1.61178 -23.8071
ltibia 28.1158
lfoot 0.00446854 -2.91124
ltoes -16.297
176
root -0.35868 15.7878 -7.7402 19.4529 -1.68506 2.40629
lowerback -16.4287 0.780999 -4.48351
upperback -5.85217 1.78258 -1.20875
thorax 2.86528 0.911703 1.5906
lowerneck -7.21308 -0.875622 -0.341226
upperneck 8.85154 -1.25963 1.2136
head 4.21272 -0.573732 0.393319
rclavicle -7.31233e-015 -2.78299e-015
rhumerus -13.7542 6.63439 -83.3432
rradius 56.4409
rwrist -15.6543
rhand -18.7073 -29.4903
rfingers 7.12502
rthumb 7.58769 -59.3342
lclavicle -7.31233e-015 -2.78299e-015
lhumerus -84.4425 32.9012 14.3674
lradius 9.23324
lwrist -59.823
lhand -14.6826 -15.1314
lfingers 7.12502
lthumb 11.4709 14.5348
rfemur -0.545111 -2.88028 17.4951
rtibia 33.4096
rfoot -5.64282 15.1089
rtoes -16.9105
lfemur -54.346 1.21586 -24.5248
ltibia 30.3614
lfoot -0.692813 -3.49624
ltoes -17.0051
177
root -0.347456 15.781 -7.4832 19.0324 -0.768083 3.11491
lowerback -16.0683 0.470836 -5.11528
upperback -5.73772 1.47096 -1.55228
thorax 2.80329 0.759578 1.52275
lowerneck -7.30396 -1.02816 -0.287794
upperneck 8.79118 -1.51031 1.61445
head 4.21593 -0.675832 0.503116
rclavicle 1.3713e-015 -6.16232e-015
rhumerus -15.2384 5.84178 -83.5681
rradius 57.0784
rwrist -15.8601
rhand -19.1483 -29.8476
rfingers 7.12502
rthumb 7.16204 -59.7065
lclavicle 1.3713e-015 -6.16232e-015
lhumerus -84.4081 32.9897 13.6337
lradius 9.27495
lwrist -60.3991
lhand -14.8929 -15.419
lfingers 7.12502
lthumb 11.268 14.2583
rfemur -1.07665 -3.48741 16.9813
rtibia 36.5011
rfoot -1.61735 14.8657
rtoes -14.8951
lfemur -54.1014 0.58984 -25.3883
ltibia 32.4924
lfoot -1.8057 -4.06684
ltoes -16.016
